<svg xmlns="http://www.w3.org/2000/svg" viewBox="0 0 678.75 184.9" xmlns:v="https://vecta.io/nano"><path d="M135.94 23.06a3.33 3.33 0 0 0-3.13-2.65H63.42a3.1 3.1 0 0 0-3.17 2.16l-60 155.85a3.59 3.59 0 0 0 .24 3.12 3.32 3.32 0 0 0 2.64 1.44h51.39a3.42 3.42 0 0 0 3.12-2.16l9.13-27.61h35.3l2.4 26.89a3.2 3.2 0 0 0 3.36 2.88h53.55a3 3 0 0 0 2.4-1.2 2.71 2.71 0 0 0 .72-2.64zm-37 95.57h-22.1l16.81-49.95z" fill="#002e6d"/><path d="M209.66 52.35a33.29 33.29 0 0 0 20.65-7.19c6.24-5 10.08-11.29 10.8-18.73a22.13 22.13 0 0 0-6.72-18.73A27.35 27.35 0 0 0 214.7.01a32.54 32.54 0 0 0-20.45 7.2c-6.25 5-9.85 11-10.81 18.49-.72 7.44 1.44 13.92 6.49 19s11.76 7.68 19.69 7.68" fill="#ff595a"/><path d="M376.07 62.92h-46.11a3.37 3.37 0 0 0-3.36 2.88l-7 64.11c-.48 4.33-1.92 7.45-4.33 9.61a12 12 0 0 1-8.4 3.36c-3.36 0-5.76-1-7.68-3.12s-2.65-5-2.17-9.13l7-64.11a4.84 4.84 0 0 0-.72-2.64 3.33 3.33 0 0 0-2.4-1.2h-47.06a3.37 3.37 0 0 0-3.36 2.88l-7 64.83a46.74 46.74 0 0 0 5.28 28.34c4.56 8.16 11.76 14.65 21.37 19.21a77.75 77.75 0 0 0 32.66 6.72c12.24 0 23.53-2.16 33.38-6.72a62 62 0 0 0 24.49-18.73 53.52 53.52 0 0 0 11.09-28.05l7-64.83a4.84 4.84 0 0 0-.72-2.64c0-.48-1-.72-1.92-.72" fill="#002e6d"/><path d="M232.71 166.89a46.46 46.46 0 0 1-5.28-28.33l.48-4.56 2.88-28.84c4.08-40.34-47.31-42.5-47.31-42.5a3.37 3.37 0 0 0-3.36 2.88l-7.2 69.88c-1.68 14.89 1 26.89 7.68 35.54 7 8.88 17.29 13.44 31.22 13.44a73.57 73.57 0 0 0 17.77-2.16 36.19 36.19 0 0 0 8.66-3.08c1.92-1 1.92-2.64.72-4.08a30.54 30.54 0 0 1-6.24-8.17" fill="#ff595a"/><path d="M539.36 20.89a3.61 3.61 0 0 0-2.64-1l-48.75 7a3.58 3.58 0 0 0-2.88 2.88l-5 46.34a32.09 32.09 0 0 0-9.13-8.88c-6.24-3.84-14.17-6-23.53-6a59.5 59.5 0 0 0-30 8.16 70.32 70.32 0 0 0-24 22.09 69.12 69.12 0 0 0-11.29 31 58.72 58.72 0 0 0 4.32 30.26 52.07 52.07 0 0 0 18.73 23.05 50.53 50.53 0 0 0 29.06 8.64c14.65 0 26.66-4.8 35.54-14.4l-1 9.12a4.84 4.84 0 0 0 .72 2.64 3.08 3.08 0 0 0 2.4 1h48a3.37 3.37 0 0 0 3.34-2.93l17.07-156.32a2.86 2.86 0 0 0-1-2.65m-64.07 100.86v1c-.48 5.28-2.88 9.85-7.2 13.93a20.14 20.14 0 0 1-14.65 6 16.55 16.55 0 0 1-12.74-5.52 15.81 15.81 0 0 1-4.08-13.45 20.37 20.37 0 0 1 7.21-13.93 20.89 20.89 0 0 1 14.64-5.76 16.42 16.42 0 0 1 12.73 5.52c3.12 3.12 4.56 7.21 4.08 12.25m197.87-31.02a49.19 49.19 0 0 0-22.33-21.85c-9.85-5-21.61-7.68-35.06-7.68a89 89 0 0 0-36.26 7.44 68 68 0 0 0-26.89 21.61 63.6 63.6 0 0 0-12.25 32.18c-1.2 12 .48 23.05 5.28 32.42s12.49 16.81 22.33 22.09 21.62 7.92 34.82 7.92a85.61 85.61 0 0 0 36.5-7.68 67.74 67.74 0 0 0 26.66-21.61 66 66 0 0 0 12.25-32.18c1.68-12.49-.25-23.29-5-32.66m-81.45 32.39a26.81 26.81 0 0 1 7-15.85 18.21 18.21 0 0 1 13.93-6c5.28 0 9.12 1.92 12 5.52 3.12 3.84 4.08 9.13 3.36 15.37a26.76 26.76 0 0 1-7 15.85 18.19 18.19 0 0 1-13.92 6c-5.29 0-9.13-1.92-12-5.52-3.12-4.08-4.08-9.13-3.36-15.37" fill="#002e6d"/></svg>